<svg xmlns="http://www.w3.org/2000/svg" width="21.605" height="21.601" viewBox="0 0 21.605 21.601">
  <g id="Icon" transform="translate(-1.2 -1.2)">
    <path id="패스_616" data-name="패스 616" d="M12,21.25a.75.75,0,0,1,0,1.5H4A2.748,2.748,0,0,1,1.25,20V4A2.748,2.748,0,0,1,4,1.25h8.586a1.746,1.746,0,0,1,1.237.513l4.414,4.414a1.746,1.746,0,0,1,.513,1.237V11a.75.75,0,0,1-1.5,0V7.414a.251.251,0,0,0-.073-.177L12.763,2.823a.251.251,0,0,0-.177-.073H4A1.25,1.25,0,0,0,2.75,4V20A1.25,1.25,0,0,0,4,21.25Z" fill="#fff" stroke="#fff" stroke-width="0.1" fill-rule="evenodd"/>
    <path id="패스_617" data-name="패스 617" d="M12.25,2.5a.75.75,0,0,1,1.5,0V6a.25.25,0,0,0,.25.25h3.5a.75.75,0,0,1,0,1.5H14A1.749,1.749,0,0,1,12.25,6Z" fill="#fff" stroke="#fff" stroke-width="0.1" fill-rule="evenodd"/>
    <path id="패스_618" data-name="패스 618" d="M6,11.25a.75.75,0,0,1,0-1.5h8a.75.75,0,0,1,0,1.5Z" fill="#fff" stroke="#fff" stroke-width="0.1" fill-rule="evenodd"/>
    <path id="패스_619" data-name="패스 619" d="M6,14.75a.75.75,0,0,1,0-1.5h4.5a.75.75,0,0,1,0,1.5Z" fill="#fff" stroke="#fff" stroke-width="0.1" fill-rule="evenodd"/>
    <path id="패스_620" data-name="패스 620" d="M6,18.25a.75.75,0,0,1,0-1.5h4.5a.75.75,0,0,1,0,1.5Z" fill="#fff" stroke="#fff" stroke-width="0.1" fill-rule="evenodd"/>
    <circle id="타원_125" data-name="타원 125" cx="1.5" cy="1.5" r="1.5" transform="translate(16.361 16.125)" fill="#fff" stroke="#fff" stroke-width="0.1"/>
    <path id="패스_621" data-name="패스 621" d="M19.4,13.044s.355.855.354.855a4.252,4.252,0,0,1,.393.226l.918-.12a.752.752,0,0,1,.662.251,5.149,5.149,0,0,1,.987,1.709.75.75,0,0,1-.115.7s-.562.735-.562.734a4.278,4.278,0,0,1,0,.453l.562.735a.75.75,0,0,1,.115.7,5.149,5.149,0,0,1-.987,1.709.752.752,0,0,1-.662.251s-.918-.12-.917-.121a4.167,4.167,0,0,1-.393.227l-.355.855a.748.748,0,0,1-.548.448,5.122,5.122,0,0,1-1.974,0,.748.748,0,0,1-.548-.448s-.355-.855-.354-.855a4.124,4.124,0,0,1-.393-.226l-.918.12A.751.751,0,0,1,14,20.994a5.114,5.114,0,0,1-.987-1.709.752.752,0,0,1,.114-.7s.563-.735.563-.734a4.278,4.278,0,0,1,0-.453l-.563-.735a.753.753,0,0,1-.114-.7A5.114,5.114,0,0,1,14,14.256.751.751,0,0,1,14.661,14s.918.12.917.121a4.044,4.044,0,0,1,.393-.227l.355-.855a.748.748,0,0,1,.548-.448,5.122,5.122,0,0,1,1.974,0,.748.748,0,0,1,.548.448Zm-1.222.97a3.537,3.537,0,0,0-.626,0l-.3.731a.75.75,0,0,1-.406.4,2.66,2.66,0,0,0-.609.352.753.753,0,0,1-.554.149l-.785-.1a3.573,3.573,0,0,0-.313.543l.481.628a.752.752,0,0,1,.148.555,2.661,2.661,0,0,0,0,.7.752.752,0,0,1-.148.555l-.481.629a3.564,3.564,0,0,0,.313.542l.785-.1a.753.753,0,0,1,.554.149,2.661,2.661,0,0,0,.609.352.75.75,0,0,1,.406.405l.3.731a3.445,3.445,0,0,0,.626,0l.3-.731a.75.75,0,0,1,.406-.405,2.682,2.682,0,0,0,.609-.352.753.753,0,0,1,.554-.149l.785.1a3.573,3.573,0,0,0,.313-.543l-.481-.628a.752.752,0,0,1-.148-.555,2.749,2.749,0,0,0,0-.7.752.752,0,0,1,.148-.555l.481-.629a3.65,3.65,0,0,0-.313-.542l-.785.1a.753.753,0,0,1-.554-.149,2.682,2.682,0,0,0-.609-.352.75.75,0,0,1-.406-.4Z" fill="#fff" stroke="#fff" stroke-width="0.1" fill-rule="evenodd"/>
  </g>
</svg>
