<svg id="excel" xmlns="http://www.w3.org/2000/svg" width="16" height="15.001" viewBox="0 0 16 15.001">
  <path id="패스_407" data-name="패스 407" d="M263.734,90.886h-7.219a.506.506,0,0,1-.516-.494V80.505a.506.506,0,0,1,.516-.494h7.219a.506.506,0,0,1,.516.494v9.886A.506.506,0,0,1,263.734,90.886Z" transform="translate(-248.25 -77.948)" fill="#eceff1"/>
  <g id="그룹_285" data-name="그룹 285" transform="translate(7.75 3.891)">
    <path id="패스_408" data-name="패스 408" d="M258.578,145.042h-2.062a.516.516,0,0,1,0-1.031h2.063a.516.516,0,0,1,0,1.031Z" transform="translate(-256 -144.011)" fill="#388e3c"/>
    <path id="패스_409" data-name="패스 409" d="M258.578,209.042h-2.062a.516.516,0,0,1,0-1.031h2.063a.516.516,0,0,1,0,1.031Z" transform="translate(-256 -205.949)" fill="#388e3c"/>
    <path id="패스_410" data-name="패스 410" d="M258.578,273.042h-2.062a.516.516,0,0,1,0-1.031h2.063a.516.516,0,0,1,0,1.031Z" transform="translate(-256 -267.886)" fill="#388e3c"/>
    <path id="패스_411" data-name="패스 411" d="M258.578,337.042h-2.062a.516.516,0,0,1,0-1.031h2.063a.516.516,0,0,1,0,1.031Z" transform="translate(-256 -329.823)" fill="#388e3c"/>
    <path id="패스_412" data-name="패스 412" d="M385.547,145.042h-1.031a.516.516,0,0,1,0-1.031h1.031a.516.516,0,0,1,0,1.031Z" transform="translate(-379.875 -144.011)" fill="#388e3c"/>
    <path id="패스_413" data-name="패스 413" d="M385.547,209.042h-1.031a.516.516,0,0,1,0-1.031h1.031a.516.516,0,0,1,0,1.031Z" transform="translate(-379.875 -205.949)" fill="#388e3c"/>
    <path id="패스_414" data-name="패스 414" d="M385.547,273.042h-1.031a.516.516,0,0,1,0-1.031h1.031a.516.516,0,0,1,0,1.031Z" transform="translate(-379.875 -267.886)" fill="#388e3c"/>
    <path id="패스_415" data-name="패스 415" d="M385.547,337.042h-1.031a.516.516,0,0,1,0-1.031h1.031a.516.516,0,0,1,0,1.031Z" transform="translate(-379.875 -329.823)" fill="#388e3c"/>
  </g>
  <path id="패스_416" data-name="패스 416" d="M9.095,16.105A.518.518,0,0,0,8.671,16L.421,17.5A.5.5,0,0,0,0,17.99v11a.5.5,0,0,0,.421.491l8.25,1.5a.5.5,0,0,0,.095.009.523.523,0,0,0,.329-.115.494.494,0,0,0,.187-.385v-14A.493.493,0,0,0,9.095,16.105Z" transform="translate(0 -15.989)" fill="#2e7d32"/>
  <path id="패스_417" data-name="패스 417" d="M84.5,164.843l-1.63-1.863,1.649-2.12a.516.516,0,1,0-.814-.634l-1.527,1.964-1.287-1.471a.515.515,0,0,0-.775.679l1.418,1.621-1.438,1.848a.516.516,0,0,0,.815.633l1.315-1.691,1.5,1.713a.515.515,0,1,0,.775-.678Z" transform="translate(-77.515 -155.607)" fill="#fafafa"/>
</svg>
