<svg xmlns="http://www.w3.org/2000/svg" width="16.711" height="20" viewBox="0 0 16.711 20">
  <g id="notification" transform="translate(-324.9 -192)">
    <g id="그룹_655" data-name="그룹 655" transform="translate(324.9 194.127)">
      <g id="그룹_653" data-name="그룹 653" transform="translate(5.349 13.467)">
        <g id="그룹_652" data-name="그룹 652">
          <path id="패스_609" data-name="패스 609" d="M767.706,1467.478a3.007,3.007,0,0,1-2.9-3.807.817.817,0,0,1,1.575.436,1.358,1.358,0,0,0-.05.365,1.371,1.371,0,0,0,2.742,0,1.347,1.347,0,0,0-.05-.365.817.817,0,0,1,1.575-.436,3.028,3.028,0,0,1,.109.8,3.005,3.005,0,0,1-3,3.006Z" transform="translate(-764.7 -1463.072)" fill="#fff"/>
        </g>
      </g>
      <g id="그룹_654" data-name="그룹 654" transform="translate(0 0)">
        <path id="패스_610" data-name="패스 610" d="M340.818,373.274H325.692a.789.789,0,0,1-.792-.783,3.384,3.384,0,0,1,1.014-2.421,3.487,3.487,0,0,1,.859-.622.51.51,0,0,0,.276-.459v-4.665a5.74,5.74,0,0,1,.463-2.267,5.87,5.87,0,0,1,3.132-3.1,5.913,5.913,0,0,1,2.292-.458h.637a5.905,5.905,0,0,1,4.163,1.705,5.777,5.777,0,0,1,1.724,4.118v4.665a.529.529,0,0,0,.292.468,3.463,3.463,0,0,1,1.343,1.236,3.4,3.4,0,0,1,.515,1.8A.787.787,0,0,1,340.818,373.274Zm-14.161-1.567h13.194a1.861,1.861,0,0,0-.834-.863,2.089,2.089,0,0,1-1.141-1.855v-4.666a4.285,4.285,0,0,0-4.3-4.256h-.637a4.285,4.285,0,0,0-4.3,4.256v4.665a2.077,2.077,0,0,1-1.132,1.851,1.885,1.885,0,0,0-.467.338A1.855,1.855,0,0,0,326.657,371.707Z" transform="translate(-324.9 -358.5)" fill="#fff"/>
      </g>
    </g>
    <g id="그룹_656" data-name="그룹 656" transform="translate(332.438 192)">
      <path id="패스_611" data-name="패스 611" d="M936.818,195.762a.818.818,0,0,1-.818-.818v-2.127a.818.818,0,1,1,1.635,0v2.127A.818.818,0,0,1,936.818,195.762Z" transform="translate(-936 -192)" fill="#fff"/>
    </g>
  </g>
</svg>
