<svg xmlns="http://www.w3.org/2000/svg" width="14" height="16" viewBox="0 0 14 16">
  <g id="download" transform="translate(-16)">
    <g id="그룹_369" data-name="그룹 369" transform="translate(19.349)">
      <g id="그룹_368" data-name="그룹 368" transform="translate(0)">
        <path id="패스_482" data-name="패스 482" d="M135.259,6.657a.455.455,0,0,0-.415-.267h-1.825V.456A.457.457,0,0,0,132.562,0h-1.825a.457.457,0,0,0-.456.456V6.389h-1.825a.456.456,0,0,0-.343.757l3.195,3.651a.455.455,0,0,0,.686,0l3.195-3.651A.455.455,0,0,0,135.259,6.657Z" transform="translate(-127.998)"/>
      </g>
    </g>
    <g id="그룹_371" data-name="그룹 371" transform="translate(16 11.436)">
      <g id="그룹_370" data-name="그룹 370">
        <path id="패스_483" data-name="패스 483" d="M28.133,352v2.738H17.867V352H16v3.651a.923.923,0,0,0,.933.913H29.067a.922.922,0,0,0,.933-.913V352Z" transform="translate(-16 -352)"/>
      </g>
    </g>
  </g>
</svg>
